<svg viewBox="0 0 256 256" xmlns="http://www.w3.org/2000/svg">
  <path d="M245.618 74.3164C235.819 64.4315 220.178 64.4315 208.211 70.9185C184.749 84.2013 163.832 100.058 144.516 119.828L148.756 69.9918C148.756 69.9918 151.017 52.0754 132.078 46.2062C120.395 42.6023 107.863 47.2359 99.0057 57.9445C81.8569 79.7737 67.7234 102.941 56.3223 128.889C54.1551 120.755 53.5898 116.533 50.9515 108.502C44.5443 89.2468 28.6204 88.9379 19.5749 92.5417C10.6237 96.0426 -2.47347 108.296 5.44134 128.169C15.4291 153.499 28.3378 177.284 39.7388 201.791C39.7388 201.894 39.8331 201.894 39.8331 201.997C42.1887 207.042 47.1825 210.543 53.0244 210.955C61.5046 211.573 69.4194 205.806 71.8692 196.745C78.5591 172.136 88.17 150.101 100.796 128.58C102.304 145.982 103.811 163.487 105.319 180.888C105.319 180.991 105.319 181.094 105.319 181.094C105.884 186.757 109.182 192.009 114.364 194.789C121.902 198.805 131.136 196.539 136.318 189.126C150.735 168.841 166.941 152.16 186.069 137.23C181.64 154.117 177.212 170.9 172.689 187.787C170.616 196.848 175.704 205.909 183.43 209.204C191.157 212.499 200.579 209.925 204.819 201.585C204.819 201.585 238.646 129.507 250.047 103.868C253.062 97.6901 256.36 85.231 245.618 74.3164Z" fill="#fff"/>
</svg>
